<?xml version="1.0" encoding="utf-8"?>
<!-- Generator: Adobe Illustrator 24.0.1, SVG Export Plug-In . SVG Version: 6.00 Build 0)  -->
<svg version="1.1" xmlns="http://www.w3.org/2000/svg" xmlns:xlink="http://www.w3.org/1999/xlink" x="0px" y="0px"
	 viewBox="0 0 464 464" style="enable-background:new 0 0 464 464;" xml:space="preserve">
<style type="text/css">
	.st0{fill:#1E2336;}
	.st1{fill:#FF5E54;}
	.st2{fill:#3EB9FC;}
</style>
<g id="Layer_1">
	<path class="st0" d="M29.9,426.2c0.7,0.4,1.5,0.6,2.2,0.6c0.7,0,1.4-0.2,2-0.5l88.5-45.8l85.6,45.7c1.2,0.6,2.7,0.7,3.9,0
		l91.3-46.8c1.4-0.7,2.4-2.1,2.4-3.7V162.3c-0.1-1.5-0.9-2.8-2.1-3.6c-1.3-0.8-2.8-0.8-4.2-0.2l-89.2,45.8l-85.6-45
		c-1.2-0.6-2.6-0.6-3.9,0l-90.6,46c-1.4,0.7-2.4,2.1-2.4,3.7v213.6C27.8,424.1,28.6,425.5,29.9,426.2z M205.7,415.4l-79.1-42.1
		V169.9l79.1,41.4V415.4z M297.4,373.3L214.1,416V211.8l83.3-42.7V373.3z M36.1,211.6l82.1-41.7v203.4l-82.1,42.4V211.6z"/>
	<path class="st0" d="M230.8,254.7c0.7,0,1.3-0.2,1.9-0.5l50.9-26.1c1.3-0.7,2.2-2,2.3-3.5c0.1-1.5-0.7-2.9-1.9-3.8
		c-1.3-0.8-2.9-0.9-4.2-0.2l-50.9,26.1c-1.7,0.9-2.6,2.8-2.2,4.7C227.2,253.3,228.9,254.7,230.8,254.7z"/>
	<path class="st0" d="M230.8,284.2c0.7,0,1.3-0.2,1.9-0.5l50.9-26.1c1.3-0.7,2.2-2,2.3-3.5c0.1-1.5-0.7-2.9-1.9-3.8
		c-1.3-0.8-2.9-0.9-4.2-0.2l-50.9,26.1c-1.7,0.9-2.6,2.8-2.2,4.7S228.9,284.2,230.8,284.2z"/>
	<path class="st0" d="M279.8,279.7l-50.9,26.1c-1.3,0.7-2.2,2-2.3,3.5c-0.1,1.5,0.7,2.9,1.9,3.7c1.3,0.8,2.9,0.9,4.2,0.2l50.9-26.1
		c1.3-0.7,2.2-2,2.3-3.5c0.1-1.5-0.7-2.9-1.9-3.8C282.8,279.1,281.1,279,279.8,279.7z"/>
	<path class="st0" d="M100.4,292.2l-50.9,26.1c-1.3,0.7-2.2,2-2.3,3.5c-0.1,1.5,0.7,2.9,1.9,3.7c1.3,0.8,2.9,0.9,4.2,0.2l50.9-26.1
		c1.3-0.7,2.2-2,2.3-3.5c0.1-1.5-0.7-2.9-1.9-3.7C103.3,291.5,101.7,291.5,100.4,292.2z"/>
	<path class="st0" d="M100.4,321.7l-50.9,26.1c-1.3,0.7-2.2,2-2.3,3.5c-0.1,1.5,0.7,2.9,1.9,3.7c1.3,0.8,2.9,0.9,4.2,0.2l50.9-26.1
		c1.3-0.7,2.2-2,2.3-3.5c0.1-1.5-0.7-2.9-1.9-3.7C103.3,321.1,101.7,321,100.4,321.7z"/>
	<path class="st0" d="M192.2,277.5l-47.1-24.8c-2-1.1-4.6-0.3-5.6,1.8c-1.1,2-0.3,4.6,1.7,5.6l47.1,24.8c1.3,0.7,2.9,0.7,4.2-0.1
		c1.3-0.8,2-2.2,2-3.7C194.5,279.5,193.6,278.2,192.2,277.5z"/>
	<path class="st0" d="M141.3,224.7l47.1,24.8c1.3,0.7,2.9,0.7,4.2-0.1c1.3-0.8,2-2.2,2-3.7c-0.1-1.5-0.9-2.9-2.3-3.6l-47.1-24.8
		c-2.1-1.1-4.6-0.3-5.7,1.8C138.4,221,139.2,223.6,141.3,224.7z"/>
	<path class="st1" d="M104.4,209.5c-1.2-0.8-2.8-0.8-4-0.2l-50.7,26.1c-1.4,0.7-2.2,2.2-2.1,3.7v35.5c-0.1,1.4,0.7,2.8,1.9,3.6
		c0.6,0.4,1.4,0.6,2.1,0.6c0.7,0,1.3-0.2,1.9-0.5l50.7-26.1c1.4-0.7,2.2-2.2,2.1-3.7v-35.5C106.3,211.7,105.6,210.3,104.4,209.5z
		 M97.9,246l-41.9,21.8v-26.1L97.9,220V246z"/>
	<path class="st1" d="M192.2,318.9l-47-24.8c-1.3-0.7-2.8-0.6-4,0.1c-1.2,0.8-2,2.1-1.9,3.6v41.4c0,1.5,0.8,3,2.2,3.7l47,24.8
		c0.6,0.3,1.3,0.5,1.9,0.5c0.7,0,1.5-0.2,2.1-0.6c1.2-0.8,2-2.1,1.9-3.6v-41.4C194.4,321,193.5,319.6,192.2,318.9z M185.9,357
		l-38.3-20.4v-31.9l38.3,20.4V357z"/>
</g>
<g id="Layer_3">
	<path class="st0" d="M460,141.1l-29.6-2.8c-3.1-12.6-8.2-24.6-15-35.6l18.8-22.7c1.9-2.2,1.7-5.5-0.4-7.5l-32-32
		c-2-2-5.3-2.2-7.5-0.4l-22.8,18.8c-11.1-6.8-23.1-11.8-35.6-15l-2.9-29.6c-0.3-2.9-2.7-5.1-5.6-5.1h-43.7c-2.9,0-5.3,2.2-5.6,5.1
		l-2.9,29.6c-12.6,3.2-24.6,8.3-35.6,15L217.1,40c-2.2-1.8-5.5-1.7-7.5,0.4l-32,32c-2,2.1-2.2,5.3-0.4,7.6l18.8,22.7
		c-6.8,11-11.9,23.1-15,35.7l-29.5,2.9c-2.9,0.3-5.1,2.7-5,5.6v31.7c3.9,1.6,7.7,3.8,11.2,6.2v-32.8l28.5-2.7c2.4-0.2,4.4-2,4.9-4.4
		c3-14,8.6-27.4,16.6-39.4c1.4-2.1,1.2-4.8-0.4-6.7l-18.2-22l24.7-24.7l22,18.2c1.9,1.6,4.6,1.7,6.7,0.4c12-7.9,25.4-13.5,39.4-16.6
		c2.4-0.5,4.1-2.5,4.4-4.9l2.7-28.5h33.5l2.7,28.5c0.2,2.4,2,4.4,4.4,4.9c14,3.1,27.4,8.7,39.4,16.6c2.1,1.4,4.8,1.2,6.7-0.4
		l22-18.2l24.7,24.7l-18.2,22c-1.6,1.9-1.7,4.6-0.4,6.7c7.9,12,13.6,25.3,16.6,39.4c0.5,2.4,2.5,4.2,4.9,4.4l28.5,2.7v35.1
		l-28.5,2.7c-2.4,0.2-4.4,2-4.9,4.4c-3.1,14-8.7,27.4-16.6,39.4c-1.3,2.1-1.2,4.8,0.4,6.7l18,21.7l-15.5,13.7l-29.7-41.2
		c34.4-38,33.3-96.9-3.3-133.5c-37.8-37.8-99.2-37.8-137,0c-29.1,29.1-35.7,72.3-20,107.8c2.2-3.5,5.4-5.7,9-7.4
		c-12.4-30.9-6.1-67.5,18.9-92.5c33.4-33.4,87.6-33.4,121.1,0c33.4,33.4,33.4,87.6,0,121.1c-1.9,1.9-2.2,5-0.6,7.3l36.1,50
		c0.9,1.3,2.4,2.1,3.9,2.3c1.6,0.2,3.2-0.3,4.3-1.4l24.3-21.4c2.3-2,2.5-5.5,0.6-7.8l-18.8-22.8c6.8-11.1,11.8-23.1,15-35.6
		l29.6-2.9c2.9-0.3,5.1-2.7,5-5.6v-45.3C465.1,143.8,462.9,141.4,460,141.1z"/>
	<path class="st2" d="M325.3,268.2v-85.2c14.2-8.2,23.4-23.7,23.4-39.7c0-21.8-12.5-37.8-33.4-42.6c-1.7-0.4-3.6,0.1-4.9,1.2
		c-1.4,1.2-2.1,2.9-1.9,4.7l1.9,23.8c-4.7,2.5-10.3,2.5-15,0l2-24c0.2-1.8-0.6-3.6-2-4.8c-1.4-1.2-3.3-1.6-5.1-1
		c-19.1,5.5-31.1,22-31.1,43c0,11.9,3.8,22.3,10.7,30.2l10.6-5.4c-6.4-6.1-10-14.7-10-24.7c0-12.5,5.6-22.9,15-28.7l-1.5,18
		c-0.2,1.9,0.7,3.8,2.2,4.9l0.2,0.2c9.9,7.5,23.6,7.4,33.3-0.2c0,0,0.1-0.1,0.2-0.1c1.4-1.2,2.1-2.9,2-4.8l-1.5-18.7
		c11,5.2,17.2,15.4,17.2,29.1c0,12.7-8.3,25.6-20.2,31.2c-2,0.9-3.2,2.9-3.2,5.1v92.6c0,2.5,1.6,4.7,4,5.4c14.2,4.3,23,16.6,23,32.1
		c-0.1,12.5-5.7,22.8-15.1,28.6h0l1.5-18c0.2-1.9-0.7-3.8-2.2-4.9l-0.2-0.2c-5.7-4.3-12.6-6.1-19.3-5.4v11.3c3.4-0.6,7-0.1,10.2,1.6
		l-2,24c-0.2,1.8,0.6,3.6,2,4.8s3.3,1.6,5.1,1c19-5.5,31-21.9,31.2-42.8C352.3,290.5,342.1,274.9,325.3,268.2z"/>
</g>
</svg>
